<?xml version="1.0" encoding="UTF-8"?>
<svg version="1.1" viewBox="0 0 100 100" xmlns="http://www.w3.org/2000/svg"><path d="m50 3.8193a5.0005 5.0005 0 0 0-4.4727 2.7637l-41.18 82.361a5.0005 5.0005 0 0 0 4.4727 7.2363h22.359a5.0005 5.0005 0 0 0 4.4727-2.7637l14.348-28.695 14.348 28.695a5.0005 5.0005 0 0 0 4.4727 2.7637h22.359a5.0005 5.0005 0 0 0 4.4727-7.2363l-41.18-82.361a5.0005 5.0005 0 0 0-4.4727-2.7637zm-30 2.3613c-8.225 0-15 6.775-15 15s6.775 15 15 15 15-6.775 15-15-6.775-15-15-15zm60 0c-8.225 0-15 6.775-15 15s6.775 15 15 15 15-6.775 15-15-6.775-15-15-15z" fill="#fff"/><path d="m50 8.8193-41.18 82.361h22.359l18.82-37.641 18.82 37.641h22.359z" color="#000000"/><circle cx="20" cy="21.181" r="10"/><path d="m80 11.182a10 10 0 0 0-10 9.998 10 10 0 0 0 10 10 10 10 0 0 0 10-10 10 10 0 0 0-10-9.998zm0 2a8 8 0 0 1 8 7.998 8 8 0 0 1-8 8 8 8 0 0 1-8-8 8 8 0 0 1 8-7.998z"/></svg>
